<svg version="1.1" width="200.0" height="220" xmlns="http://www.w3.org/2000/svg">
<circle cx="101.875" cy="10" r="5" fill="black" />
<line x1="101.875" y1="10" x2="47.5" y2="60" stroke="black" />
<line x1="101.875" y1="10" x2="156.25" y2="60" stroke="black" />
<circle cx="47.5" cy="60" r="5" fill="black" />
<line x1="47.5" y1="60" x2="25.0" y2="110" stroke="black" />
<line x1="47.5" y1="60" x2="70.0" y2="110" stroke="black" />
<circle cx="156.25" cy="60" r="5" fill="black" />
<line x1="156.25" y1="60" x2="122.5" y2="110" stroke="black" />
<line x1="156.25" y1="60" x2="190.0" y2="110" stroke="black" />
<circle cx="25.0" cy="110" r="5" fill="black" />
<line x1="25.0" y1="110" x2="10.0" y2="160" stroke="black" />
<line x1="25.0" y1="110" x2="40.0" y2="160" stroke="black" />
<circle cx="70.0" cy="110" r="5" fill="black" />
<line x1="70.0" y1="110" x2="70.0" y2="160" stroke="black" />
<circle cx="122.5" cy="110" r="5" fill="black" />
<line x1="122.5" y1="110" x2="100.0" y2="160" stroke="black" />
<line x1="122.5" y1="110" x2="145.0" y2="160" stroke="black" />
<circle cx="190.0" cy="110" r="5" fill="black" />
<circle cx="10.0" cy="160" r="5" fill="black" />
<circle cx="40.0" cy="160" r="5" fill="black" />
<circle cx="70.0" cy="160" r="5" fill="black" />
<circle cx="100.0" cy="160" r="5" fill="black" />
<circle cx="145.0" cy="160" r="5" fill="black" />
<line x1="145.0" y1="160" x2="130.0" y2="210" stroke="black" />
<line x1="145.0" y1="160" x2="160.0" y2="210" stroke="black" />
<circle cx="130.0" cy="210" r="5" fill="black" />
<circle cx="160.0" cy="210" r="5" fill="black" />
</svg>