<svg version="1.1" width="365.0" height="270" xmlns="http://www.w3.org/2000/svg">
<circle cx="247.65625" cy="10" r="5" fill="black" />
<line x1="247.65625" y1="10" x2="147.8125" y2="60" stroke="black" />
<line x1="247.65625" y1="10" x2="295.0" y2="60" stroke="black" />
<line x1="247.65625" y1="10" x2="347.5" y2="60" stroke="black" />
<circle cx="147.8125" cy="60" r="5" fill="black" />
<line x1="147.8125" y1="60" x2="96.25" y2="110" stroke="black" />
<line x1="147.8125" y1="60" x2="199.375" y2="110" stroke="black" />
<circle cx="295.0" cy="60" r="5" fill="black" />
<line x1="295.0" y1="60" x2="295.0" y2="110" stroke="black" />
<circle cx="347.5" cy="60" r="5" fill="black" />
<line x1="347.5" y1="60" x2="340.0" y2="110" stroke="black" />
<line x1="347.5" y1="60" x2="355.0" y2="110" stroke="black" />
<circle cx="96.25" cy="110" r="5" fill="black" />
<line x1="96.25" y1="110" x2="77.5" y2="160" stroke="black" />
<line x1="96.25" y1="110" x2="115.0" y2="160" stroke="black" />
<circle cx="199.375" cy="110" r="5" fill="black" />
<line x1="199.375" y1="110" x2="178.75" y2="160" stroke="black" />
<line x1="199.375" y1="110" x2="220.0" y2="160" stroke="black" />
<circle cx="295.0" cy="110" r="5" fill="black" />
<line x1="295.0" y1="110" x2="295.0" y2="160" stroke="black" />
<circle cx="340.0" cy="110" r="5" fill="black" />
<circle cx="355.0" cy="110" r="5" fill="black" />
<circle cx="77.5" cy="160" r="5" fill="black" />
<line x1="77.5" y1="160" x2="70.0" y2="210" stroke="black" />
<line x1="77.5" y1="160" x2="85.0" y2="210" stroke="black" />
<circle cx="115.0" cy="160" r="5" fill="black" />
<line x1="115.0" y1="160" x2="115.0" y2="210" stroke="black" />
<circle cx="178.75" cy="160" r="5" fill="black" />
<line x1="178.75" y1="160" x2="160.0" y2="210" stroke="black" />
<line x1="178.75" y1="160" x2="197.5" y2="210" stroke="black" />
<circle cx="220.0" cy="160" r="5" fill="black" />
<circle cx="295.0" cy="160" r="5" fill="black" />
<line x1="295.0" y1="160" x2="280.0" y2="210" stroke="black" />
<line x1="295.0" y1="160" x2="295.0" y2="210" stroke="black" />
<line x1="295.0" y1="160" x2="310.0" y2="210" stroke="black" />
<circle cx="70.0" cy="210" r="5" fill="black" />
<circle cx="85.0" cy="210" r="5" fill="black" />
<circle cx="115.0" cy="210" r="5" fill="black" />
<circle cx="160.0" cy="210" r="5" fill="black" />
<circle cx="197.5" cy="210" r="5" fill="black" />
<line x1="197.5" y1="210" x2="190.0" y2="260" stroke="black" />
<line x1="197.5" y1="210" x2="205.0" y2="260" stroke="black" />
<circle cx="280.0" cy="210" r="5" fill="black" />
<circle cx="295.0" cy="210" r="5" fill="black" />
<circle cx="310.0" cy="210" r="5" fill="black" />
<circle cx="190.0" cy="260" r="5" fill="black" />
<circle cx="205.0" cy="260" r="5" fill="black" />
</svg>